<?xml version="1.0" encoding="UTF-8"?>
<svg id="Layer_1" data-name="Layer 1" xmlns="http://www.w3.org/2000/svg" viewBox="0 0 1083.49 613.26">
  <defs>
    <style>
      .cls-1, .cls-2, .cls-3 {
        fill: none;
      }

      .cls-1, .cls-3 {
        stroke: #fff;
        stroke-width: 61.44px;
      }

      .cls-2 {
        stroke: #231f20;
        stroke-width: 15.36px;
      }

      .cls-4, .cls-3 {
        opacity: 0;
      }
    </style>
  </defs>
  <g>
    <g class="cls-4">
      <path class="cls-1" d="m46.48,570.98L155.04,38.61h245.04c57.38,0,106.75,9.13,148.11,27.38,41.35,18.25,73.15,44.24,95.38,77.95,22.22,33.72,33.34,73.9,33.34,120.55s-8.41,89.49-25.2,127.01c-16.81,37.53-40.32,69.72-70.57,96.59-30.24,26.88-66.05,47.41-107.4,61.6-41.37,14.2-86.85,21.3-136.48,21.3H46.48Zm211.7-139.94h85.3c32.57,0,59.83-6.96,81.81-20.91,21.97-13.94,38.64-32.7,50.02-56.28,11.37-23.58,17.06-49.82,17.06-78.72,0-20.78-4.26-38.27-12.8-52.48-8.53-14.19-21.2-25.1-38-32.7-16.81-7.61-37.61-11.41-62.42-11.41h-69.79l-51.18,252.49Z"/>
    </g>
    <path d="m46.48,570.98L155.04,38.61h245.04c57.38,0,106.75,9.13,148.11,27.38,41.35,18.25,73.15,44.24,95.38,77.95,22.22,33.72,33.34,73.9,33.34,120.55s-8.41,89.49-25.2,127.01c-16.81,37.53-40.32,69.72-70.57,96.59-30.24,26.88-66.05,47.41-107.4,61.6-41.37,14.2-86.85,21.3-136.48,21.3H46.48Zm211.7-139.94h85.3c32.57,0,59.83-6.96,81.81-20.91,21.97-13.94,38.64-32.7,50.02-56.28,11.37-23.58,17.06-49.82,17.06-78.72,0-20.78-4.26-38.27-12.8-52.48-8.53-14.19-21.2-25.1-38-32.7-16.81-7.61-37.61-11.41-62.42-11.41h-69.79l-51.18,252.49Z"/>
  </g>
  <g>
    <polygon class="cls-3" points="796.95 50.17 617.04 50.17 845.03 582.54 1034.23 582.54 796.95 50.17"/>
    <polygon points="796.95 50.17 617.04 50.17 845.03 582.54 1034.23 582.54 796.95 50.17"/>
  </g>
  <g>
    <polygon class="cls-3" points="773.94 449.4 586.51 449.4 586.51 360.27 735 360.27 773.94 449.4"/>
    <polygon points="773.94 449.4 586.51 449.4 586.51 360.27 735 360.27 773.94 449.4"/>
  </g>
  <path class="cls-2" d="m132.45,14.45s368.26-32.69,455.37,45.63c0,0,0-28.8,27.39-29.13h197.33l259.03,571.21h-242.21l-57.86-129.83-136.8-1.35s-105.18,122.55-239.81,122.55H9.48L132.45,14.45Z"/>
</svg>